<?xml version="1.0" encoding="utf-8"?>
<!-- Generator: Adobe Illustrator 22.0.1, SVG Export Plug-In . SVG Version: 6.00 Build 0)  -->
<svg version="1.1" id="Слой_1" xmlns="http://www.w3.org/2000/svg" xmlns:xlink="http://www.w3.org/1999/xlink" x="0px" y="0px"
	 width="219.8px" height="39.7px" viewBox="0 0 219.8 39.7" style="enable-background:new 0 0 219.8 39.7;" xml:space="preserve">
<style type="text/css">
	.st0{fill:#0097B3;}
</style>
<g id="component_x2F_header_x2F_middle-block-client" transform="translate(0.000000, -10.000000)">
	<g id="logo" transform="translate(0.000000, 10.000000)">
		<polygon id="Shape" class="st0" points="102.9,0.6 95.2,39.2 104,39.2 111.7,0.6 		"/>
		<polygon id="Shape_1_" class="st0" points="16.5,0.6 7.7,0.6 0,39.2 8.8,39.2 		"/>
		<polygon id="Shape_2_" class="st0" points="100.1,0.6 91.4,0.6 75.1,27.4 69.9,0.6 61.2,0.6 68.6,39.2 76.6,39.2 		"/>
		<polygon id="Shape_3_" class="st0" points="144.4,0.6 115.9,0.6 114.3,8.7 124.3,8.7 118.2,39.2 126.9,39.2 133,8.7 142.9,8.7 		
			"/>
		<polygon id="Shape_4_" class="st0" points="50.3,0.6 45.2,26.1 31.8,0.6 24.2,0.6 16.5,39.2 25,39.2 30.1,13.6 43.4,39.2 51,39.2 
			58.7,0.6 		"/>
		<path id="Shape_5_" class="st0" d="M165.2,0.6h-16l-7.7,38.6h8.8l6-30.5h7.6c1.5-0.1,3,0.5,4.1,1.5c0.8,0.9,1.3,2.2,1.1,3.4
			c-0.4,3.9-3.4,5.7-7.4,5.7h-6.4l8.2,19.9h8.8L166.8,26c6.3-0.8,11.1-6.2,11.1-12.6C178.3,5.9,172.8,0.6,165.2,0.6"/>
		<path id="Shape_6_" class="st0" d="M179.6,19.9c0.7-11.2,10-20,21.3-19.9c11.6,0,19.5,8.8,18.9,19.9c-0.7,11.2-10,20-21.3,19.9
			C186.8,39.7,178.9,30.9,179.6,19.9 M211.6,19.9c0.3-3.1-0.8-6.2-2.9-8.5s-5.2-3.6-8.3-3.5c-6.7,0-12.3,5.3-12.6,12
			c-0.3,3.1,0.8,6.2,2.9,8.5s5.2,3.6,8.3,3.5C205.8,31.9,211.3,26.6,211.6,19.9"/>
	</g>
</g>
</svg>
