<?xml version="1.0" encoding="utf-8"?>
<!-- Generator: Adobe Illustrator 22.0.1, SVG Export Plug-In . SVG Version: 6.00 Build 0)  -->
<svg version="1.1" id="Слой_1" xmlns="http://www.w3.org/2000/svg" xmlns:xlink="http://www.w3.org/1999/xlink" x="0px" y="0px"
	 width="189px" height="25.6px" viewBox="0 0 189 25.6" style="enable-background:new 0 0 189 25.6;" xml:space="preserve">
<style type="text/css">
	.st0{fill:#66A0D9;}
	.st1{fill:#BF536A;}
	.st2{fill:#201600;}
</style>
<path class="st0" d="M4.8,0h16c2.7,0,4.8,2.2,4.8,4.8v16c0,2.7-2.2,4.8-4.8,4.8l0,0c-2.7,0-4.8-2.2-4.8-4.8V9.7H4.8
	C2.1,9.7,0,7.5,0,4.9l0,0C0,2.2,2.2,0,4.8,0L4.8,0z M25.7,4.8L25.7,4.8L25.7,4.8z"/>
<path class="st1" d="M47.8,0h-16C29.1,0,27,2.2,27,4.8v16c0,2.7,2.2,4.8,4.8,4.8l0,0c2.7,0,4.8-2.2,4.8-4.8V9.7h11.2
	c2.7,0,4.8-2.2,4.8-4.8l0,0C52.6,2.2,50.4,0,47.8,0L47.8,0z M26.9,4.8L26.9,4.8L26.9,4.8z"/>
<path class="st2" d="M67.3,24.2V5h-6.9V1.1h18.4V5H72v19.2H67.3L67.3,24.2z M86.9,18.9l4.4,0.7c-0.6,1.6-1.5,2.9-2.7,3.7
	s-2.8,1.3-4.6,1.3c-2.9,0-5.1-1-6.5-2.9c-1.1-1.5-1.7-3.5-1.7-5.8c0-2.8,0.7-5,2.2-6.5C79.4,7.8,81.3,7,83.5,7C86,7,88,7.8,89.4,9.5
	c1.4,1.6,2.1,4.2,2.1,7.6H80.4c0,1.3,0.4,2.3,1.1,3.1c0.7,0.7,1.5,1.1,2.5,1.1c0.7,0,1.3-0.2,1.7-0.6C86.3,20.4,86.6,19.8,86.9,18.9
	L86.9,18.9z M87.2,14.4c0-1.3-0.4-2.3-1-2.9c-0.6-0.7-1.4-1-2.3-1c-1,0-1.8,0.4-2.4,1.1c-0.6,0.7-0.9,1.7-0.9,2.9L87.2,14.4
	L87.2,14.4z M92.9,24.2V1.1h4.4v23.1H92.9L92.9,24.2z M109.4,18.9l4.4,0.7c-0.6,1.6-1.5,2.9-2.7,3.7s-2.8,1.3-4.6,1.3
	c-2.9,0-5.1-1-6.5-2.9c-1.1-1.5-1.7-3.5-1.7-5.8c0-2.8,0.7-5,2.2-6.5c1.4-1.6,3.3-2.4,5.5-2.4c2.5,0,4.5,0.8,5.9,2.5
	c1.4,1.6,2.1,4.2,2.1,7.6h-11.1c0,1.3,0.4,2.3,1.1,3.1c0.7,0.7,1.5,1.1,2.5,1.1c0.7,0,1.3-0.2,1.7-0.6
	C108.8,20.4,109.1,19.8,109.4,18.9L109.4,18.9z M109.6,14.4c0-1.3-0.4-2.3-1-2.9c-0.6-0.7-1.4-1-2.3-1c-1,0-1.8,0.4-2.4,1.1
	c-0.6,0.7-0.9,1.7-0.9,2.9L109.6,14.4L109.6,14.4z M120.6,24.2V5h-6.9V1.1h18.4V5h-6.8v19.2H120.6L120.6,24.2z M135.3,24.2h-4.4V7.4
	h4.1v2.4c0.7-1.1,1.3-1.9,1.9-2.2c0.6-0.4,1.2-0.5,1.9-0.5c1,0,2,0.3,2.9,0.8l-1.4,3.9c-0.7-0.5-1.4-0.7-2.1-0.7
	c-0.6,0-1.2,0.2-1.6,0.5c-0.4,0.3-0.8,1-1,1.9s-0.4,2.8-0.4,5.6v5.1H135.3z M144.7,12.6l-4-0.7c0.5-1.6,1.2-2.8,2.3-3.6
	s2.7-1.2,4.9-1.2c2,0,3.5,0.2,4.4,0.7c1,0.5,1.6,1.1,2,1.8s0.6,2,0.6,4l-0.1,5.2c0,1.5,0.1,2.6,0.2,3.3c0.1,0.7,0.4,1.4,0.8,2.2
	h-4.4c-0.1-0.3-0.3-0.7-0.4-1.3c-0.1-0.3-0.1-0.4-0.2-0.5c-0.8,0.7-1.6,1.3-2.4,1.7c-0.9,0.4-1.8,0.6-2.8,0.6
	c-1.7,0-3.1-0.5-4.1-1.4s-1.5-2.1-1.5-3.6c0-0.9,0.2-1.8,0.7-2.5s1.1-1.3,1.9-1.7c0.8-0.4,2-0.7,3.5-1c2.1-0.4,3.5-0.8,4.3-1.1v-0.4
	c0-0.9-0.2-1.5-0.6-1.8c-0.4-0.4-1.2-0.5-2.4-0.5c-0.8,0-1.4,0.2-1.8,0.5C145.4,11.3,145,11.8,144.7,12.6L144.7,12.6z M150.7,16.2
	c-0.6,0.2-1.5,0.4-2.7,0.7s-2,0.5-2.4,0.8c-0.6,0.4-0.9,0.9-0.9,1.6c0,0.6,0.2,1.2,0.7,1.6c0.5,0.5,1.1,0.7,1.8,0.7
	c0.8,0,1.6-0.3,2.3-0.8c0.5-0.4,0.9-0.9,1.1-1.5c0.1-0.4,0.2-1.1,0.2-2.2v-0.9H150.7z M172.6,24.2h-4.1v-2.5c-0.7,1-1.5,1.7-2.4,2.2
	s-1.9,0.7-2.8,0.7c-1.9,0-3.6-0.8-5-2.3c-1.4-1.6-2.1-3.7-2.1-6.5s0.7-5,2-6.5s3-2.2,5.1-2.2c1.9,0,3.5,0.8,4.9,2.3V1.1h4.4
	L172.6,24.2L172.6,24.2z M160.7,15.5c0,1.8,0.2,3.1,0.7,3.9c0.7,1.2,1.7,1.7,3,1.7c1,0,1.9-0.4,2.6-1.3c0.7-0.9,1.1-2.2,1.1-3.9
	c0-1.9-0.3-3.3-1-4.2s-1.6-1.3-2.7-1.3c-1.1,0-1.9,0.4-2.6,1.3C161.1,12.6,160.7,13.8,160.7,15.5L160.7,15.5z M184.4,18.9l4.4,0.7
	c-0.6,1.6-1.5,2.9-2.7,3.7s-2.8,1.3-4.6,1.3c-2.9,0-5.1-1-6.5-2.9c-1.1-1.5-1.7-3.5-1.7-5.8c0-2.8,0.7-5,2.2-6.5
	c1.4-1.6,3.3-2.4,5.5-2.4c2.5,0,4.5,0.8,5.9,2.5c1.4,1.6,2.1,4.2,2.1,7.6h-11.1c0,1.3,0.4,2.3,1.1,3.1c0.7,0.7,1.5,1.1,2.5,1.1
	c0.7,0,1.3-0.2,1.7-0.6C183.8,20.4,184.1,19.8,184.4,18.9L184.4,18.9z M184.6,14.4c0-1.3-0.4-2.3-1-2.9c-0.6-0.7-1.4-1-2.3-1
	c-1,0-1.8,0.4-2.4,1.1c-0.6,0.7-0.9,1.7-0.9,2.9L184.6,14.4L184.6,14.4z"/>
</svg>
