<svg version="1.1" id="Слой_1" xmlns="http://www.w3.org/2000/svg" x="0" y="0" width="302.052" height="110.352" viewBox="0 0 302.052 110.352" xml:space="preserve"><path fill="#0092D7" d="M74.429 79.38l.493.186.326.12.236.532-.273 1.263-.06.283.152.245.232.369-2.007-.624-.234-.723 1.135-1.651m-1.526-1.328l.938.925-1.332 1.941.459 1.406 4.31 1.341.262-.272-1.105-.918-.527-.843.323-1.49-.765-1.717-.296.473-2.267-.846z"/><ellipse fill="#FFF" cx="182.546" cy="102.458" rx="1.18" ry=".613"/><path fill="none" d="M71.666 54.269h-5.728l-1.13 6.355h6.399c.526 0 1.13-.228 1.51-.528.371-.382.672-.831.825-1.441l.307-1.74c.15-.833-.08-1.441-.607-1.974-.524-.45-1.126-.672-1.576-.672zM69.85 64.79h-5.644l-2.111 12.254h6.404c.526 0 .979-.225 1.507-.6.377-.304.595-.753.827-1.363l1.204-7.569c.079-.757 0-1.438-.449-1.893-.456-.602-1.062-.829-1.738-.829zm183.156 14.56a20.808 20.808 0 0 0-3.651-1.516l-.244 1.48.862.911.359 1.594.718.392.378.468.125 1.508h2.529l-1.047-.866-.267-2.18h-.053l.291-1.791zm-96.912-29.663l-.272-.336 1.786-1.095-.031-.065-.472-.098a1.01 1.01 0 0 0-.473.105l-.983.751c.006.06.02.113.026.155a.41.41 0 0 1 .021.115c.102.327.133.645.151.962h.802c-.184-.166-.392-.291-.555-.494zm-12.658-.998l-.084-.061-.726-1.841-.322.169v4.386c.829-.61 1.757-.967 2.802-1.096a11.579 11.579 0 0 0-1.67-1.557zM22.703 36.415c-1.619-.799-6.17-2.326-6.17-2.326l-.996 1.575s3.605 3.026 5.324 4.119c1.713 1.092 6.119 3.704 6.119 3.704s1.979.078 2.681.146a.185.185 0 0 0 .042.017 19.418 19.418 0 0 0 1.596-2.509c-.308-.362-.679-.881-.695-1.358 0 0-6.279-2.562-7.901-3.368z"/><path fill="none" d="M158.5 48.604l-1.53.93a3.5 3.5 0 0 0 .94.647h.734l-.144-1.577zm-5.116.538l-.005-.744c.311-.064.626-.262.783-.426.525-.459.813-.913.95-1.492.066-.209.093-.41.093-.613 0-.258-.052-.51-.158-.754l-.469-.238-1.007.475-.93 1.636-1.494.311-1.021 1.033-.144 1.854h3.396c.023-.343.014-.692.047-1.033l-.041-.009zM86.23 45.075c.228.057.552.057.873-.009.459-.009.791-.07 1.235-.214.325-.139.663-.272.834-.439l.032-.033c.014-.01.026-.014.037-.025.204-.183.265-.35.265-.434 0-.092 0-.225-.431-.522-.278-.202-.711-.343-1.177-.479a8.212 8.212 0 0 0-1.06-.255l-.188-.037c-.051.006-.137.006-.199.01-.108.25-.501.719-1.835 1.891.164.058.333.113.5.171.368.135.744.262 1.114.375zm-57.393 1.99c-.042.037-.093.079-.13.113a.874.874 0 0 1-.52.172.848.848 0 0 1-.695-.353.844.844 0 0 1 .015-1.042 6.368 6.368 0 0 1-.866-.281c-.779-.316-8.416-3.692-8.416-3.692L13.61 39.1l-2.399 5.307c2.979 2.979 4.17 4.078 5.113 4.765.604.444 1.542 1.237 2.11 2.558l2.615 4.574 8.691-8.458.041-.569a1.197 1.197 0 0 1-.528.074c-.185-.022-.315-.139-.416-.286zm-12.91 18.48l-1.75 4.806 3.413-1.146c-.291-.657-.943-2.141-1.663-3.66zm124.612-21.431l1.2.146.286-3.554 3.953-3.207.714-.181.12-.302 2.743-1.848c1.887-.713 3.759-1.07 5.707-1.088l1.295-1.17-.241-.659-1.571.692-3.938.157-.113-.116c-.512-.115-.915-.088-1.315.079a2.468 2.468 0 0 0-1.217.807l-.084.106-.512.084-2.699 1.686v-.689l-.648.306-.359.542-.229.936-.246.26-.146.007c-.899.067-1.425.561-1.615 1.514l-.047.245-.486.095-.211.287-.681.206-.457 1.619.505.253.292 2.787z"/><path fill="none" d="M18.976 71.666c-.751.155-1.015-.424-1.126-1.014l-3.248 1.086v.032a1.934 1.934 0 0 1-1.933 1.946 1.934 1.934 0 0 1-1.925-1.946c0-1.07.859-1.943 1.925-1.943.046 0 .098.011.146.016l2.229-6.103a34.882 34.882 0 0 1-.237-.459 8.862 8.862 0 0 1-.33-.746 9.085 9.085 0 0 0-1.807-.181c-5.16 0-9.367 4.226-9.367 9.416 0 5.195 4.207 9.42 9.367 9.42 5.167 0 9.37-4.225 9.37-9.42 0-.313-.021-.628-.047-.938-1.143.344-2.356.692-3.017.834zm5.972-8.579s.496-.113 1.089-.383l3.624-12.754-7.863 7.654 3.15 5.483zm-5.68 2.011c.118 1.571.213 2.648.213 2.648s.579.364 1.855.461a9.398 9.398 0 0 0-2.068-3.109zm-.288-4.199c.032.468.058.938.088 1.396a11.468 11.468 0 0 1 3.309 3.51 3.524 3.524 0 0 1 1.093-.739c-.024-.042-.046-.071-.071-.108-1.336-1.768-2.95-2.52-4.419-4.059zm23.35-11.81c-2.438 0-4.656.953-6.326 2.495l5.747 5.076a1.95 1.95 0 0 1 .579-.101c1.078 0 1.939.872 1.939 1.944s-.861 1.948-1.939 1.948a1.942 1.942 0 0 1-1.928-1.948c0-.221.047-.424.111-.611l-5.67-5.014a9.362 9.362 0 0 0-1.873 5.625c0 5.194 4.206 9.418 9.359 9.418 5.176 0 9.377-4.224 9.377-9.418.001-5.191-4.2-9.414-9.376-9.414zm215.733 38.052l-.213-.32-.69-.076-2.795-2.322.079 1.307 2.028 2.999-.082-1.355 1.074-.233zm-73.281-12.134l1.361-7.573s.21-1.063-.681-1.965c-.451-.452-.978-.679-1.663-.679h-1.953l-2.029 12.254h2.703c1.28 0 2.033-.679 2.262-2.037zm16.195-3.176c-.377.22-.6.603-.831 1.202l-.223 1.594c-.262 1.968 1.733 2.417 2.254 2.417h1.887l1.052-5.748h-2.708c-.527 0-.981.15-1.431.535zm72.751 3.326l1.281-7.646c.079-.15.304-2.722-2.333-2.722h-1.958l-2.033 12.332h2.71c1.36.001 2.108-.677 2.333-1.964zm-34.414-2.124l-.305 1.594c-.276 2.167 1.732 2.417 2.258 2.417h1.885l1.056-5.748h-2.782c-.451 0-1.819.273-2.112 1.737z"/><path fill="#FFF" d="M294.596 90.598c-.757.304-1.807.528-3.091.603-.82.081-8.964.456-8.964.456-5.046.304-7.907.832-8.51 1.664 0 0-.712.729-1.068 1.592a34.85 34.85 0 0 1-3.306.148h-2.633c-.289 0-.561 0-.822.002-.704.002-1.343.021-1.889.076a26.46 26.46 0 0 0-4.497.385c-.13.025-.274.047-.396.067l-.823 4.919c1.235-.225 6.553-.521 7.675-.521h2.563c1.225 0 2.258-.06 3.102-.138a24.15 24.15 0 0 0 1.42-.171c2.046-.324 2.93-1.621 3.131-1.965.042-.206.084-.449.137-.708.029-.126.051-.258.076-.39 2.481-.169 13.43-.503 14.131-.567 4.215-.371 5.189-2.22 5.315-2.531.367-1.353 1.095-4.779 1.095-4.779-.001-.073-.938 1.445-2.646 1.858z"/><g fill="#0092D7"><path d="M257.181 87.973l.324-.079h2.933l-1.648-1.031-.506-.759-.815-.086-3.712-3.087-.229-1.79h-.759l.267 2.18 1.047.866h-2.529l-.125-1.508-.378-.468-.718-.392-.359-1.594-.862-.911.244-1.48c1.351.419 2.563.934 3.651 1.516l.122-.771a21.483 21.483 0 0 0-3.521-1.458c-.042-.044-.074-.081-.116-.123l1.571-9.563c.072-.15.072-.449.072-.905 0-1.512-.523-2.881-1.736-4.017-1.121-1.206-2.479-1.734-4.132-1.734h-10.163l-.604 4.013h8.056c.675 0 1.279.227 1.732.829.518.604.751 1.136.601 1.664h-6.174c-2.561 0-4.369 1.364-5.271 4.013l-.229.604-.377 2.502c0 .225-.07.53-.07.901 0 .341.042.658.089.974l-.174.016-.508-.556.949-7.192.562-.564-.162-1.729.567-1.138-.538-1.087.293-.829-.243-.496.029-.265.309-2.843 1.495-.34 2.332-2.267 1.084-2.349c.176-.57.473-.857 1.036-1.052l.204-.065.041-.217c.104-.534.371-.751.915-.751h.096l1.397-.793 2.124-4.192-1.174-1.266-1.384-4.783-.366-.15-.021-.09a2.888 2.888 0 0 1-.054-.501c0-.509.179-.907.55-1.282l.066-.063.221-.729 1.103.303.223.818 1.633.551.145-.297c.259-.532.4-.926.479-1.306.047-.267.096-.559.096-.864a2.46 2.46 0 0 0-.461-1.482l-.079-.101-1.708-.481.117-1.691.845-1.045.582-.233.275 2.057 2.233.473a3.953 3.953 0 0 0-.461 1.858c0 .77.252 1.594.728 2.387 1.341 2.289 2.006 4.485 2.006 6.729 0 .225-.006.453-.021.681l.162 1.88.392.395.383 1.961.662.329.925 1.849.104.135c2.982 2.303 6.397 4.508 10.145 6.543l.289.16.783-1.06-.104-.204c-.271-.547-.407-1.172-.417-1.867-.225-1.325-.839-2.267-1.828-2.799l.257-1.232-.528-1.974-1.186-.28.38-4.617-2.262-.534.146-2.444-3.846-1.594-.751.262-3.971-3.562.573-2.946 1.798.066.116-.113a.629.629 0 0 0 .188-.447.549.549 0 0 0 .072-.272l-.009-.089c-.07-.297-.146-.528-.229-.792l-.028-.081-.063-.069c-.063-.054-.104-.104-.142-.15-.072-.079-.146-.165-.238-.237l.292-1.974 1.624-.329-.795-3.471-.5-.361-.517-5.544-.083-.091c-.367-.431-.523-.75-.523-1.121 0-.056 0-.116.011-.174l-.079-1.336v-.016c0-.421 0-.708-.062-.926l.392-1.742-1.856.115-.804.876-3.028-.452a3.435 3.435 0 0 1 1.283-1.717l.26-.18-1.052-2.295-2.174-.227-.354-.848c.484-.043.909.081 1.297.367l.499.369.434-2.602 2.494-.295.143-.355 2.416-.086-1.262-2.94-2.346-.739-.064-.525-.147-.101c-.549-.398-.665-.679-.669-1.023-.08-.638-.237-1.154-.487-1.516a1.369 1.369 0 0 0-1.253-.324l-.172.042-1.589 3.196-.594.195.125 1.307.846.604c-.515.375-1.479.493-2.775.329l-.13-.018-.118.074c-.287.184-.547.338-.767.471-.476.281-.711.423-.834.58-1.573 1.446-3.187 2.702-4.786 3.729h-.808l-1.353 2.879-2.738 2.473 2.443.589.04.044c.098.229.151.459.151.69 0 .284-.074.569-.223.87l-1.998.459-1.015 3.749-2.724 2.4-1.61-.924-3.266.497-.091.088c-.308.315-.627.85-.988 1.646-.332.883-.869 1.587-1.553 2.071-.785.432-1.649.611-2.717.572l-.557-.753-.299.2c-.429.286-1.17.656-2.169 1.088-.491.166-1.131.445-1.376 1.04h-.243l-.126.021c-.783.278-1.295.705-1.531 1.271-.1.243-.146.501-.146.783 0 .519.159 1.116.481 1.803l.063.118.507.252v.297l-.864.48.148.881a10.671 10.671 0 0 1-.904-.055 2.976 2.976 0 0 0-.262-.018h-.233l-.542 1.104-2.022.401.074 3.133-2.508-.736-1.394-1.345v-1.447l-.805-.353c-.317-.458-.651-.774-.954-.929-1.347-.84-2.72-.756-3.977.255l-.144.11v.186c0 .283 0 .635-.074.945-.062.635-.383 1.195-1.01 1.746l-3.056-.612-.802 1.035-1.86.14-3.893 1.341-.54.702-1.054.486-.1.354-.416-.085v-.22l.524-.535v-.152c0-.251.095-.469.273-.715l.176-.178c.501-.508.906-.911 1.344-1.275.792-.877 1.215-1.79 1.297-2.828 0-1.074-.37-2.043-1.14-2.965l-.083-.103-2.573-.579-.974.4-.336-1.551-.936-.159-.315-.856-1.722-.103-2.264 2.864.032.169c.025.139.042.278.042.403 0 .446-.174.811-.53 1.153l-1.268.299-.38-.445-.491-.122-.076.009c-.937.157-1.965.748-3.099 1.804l-.532.671-1.136.412-.054.186c-.141.489-.356 1.07-.66 1.769-.762 1.799-2.365 2.634-4.752 2.499l-.386-.028-.167 4.488.204.206a.146.146 0 0 1-.052.023c-.709 0-1.353-.233-1.895-.468-.263-.246-.528-.334-.77-.419l-.128-.021c-.13 0-.343 0-.515.185l-1.469.262-.405-.705-.838-.182-.08-.009c-.176 0-.463 0-.907.222l-1.354 1.025v.189c0 .246.037.412.069.523l.021.115c.081.264.104.52.12.774h-.952c.032-.433.021-.876.065-1.302v-.005c.176-.1.343-.222.462-.347.622-.543.992-1.136 1.171-1.85.079-.27.118-.538.118-.807 0-.416-.098-.824-.297-1.214l-.05-.106-1.024-.521-1.551.734-.883 1.543-1.383.289-1.378 1.396-.169 2.189h-3.178a11.886 11.886 0 0 0-2.076-2.03l-.94-2.404-1.48.742v4.538l-.396.081-.07-1.165-5.119-.623-.246-.378.352-.989-.324-.142c-.616-.269-1.145-.242-1.685.069l-.701-.312c-.346-.092-.621-.158-.876-.164-1.048-.25-2.007-.027-2.792.641-.864.231-1.707.191-2.507-.13l.041-.612.893-.297.38-3.465h-.427c-.588 0-1.13.223-1.51.606-.573.432-.876 1.005-.876 1.646 0 .051.004.102.004.152l-.312.123-1.75 1.217c-.021-.211-.167-.393-.434-.523l-.303-.153-.109-.037a8.15 8.15 0 0 0-3.317.157l-.105.027-.074.074c-.301.309-.536.547-.718.881-.505.559-1.099.93-1.698 1.07l-.434-3.768-.295-.031c-.737-.08-1.345-.021-1.813.159a35.647 35.647 0 0 0 2.1-7.12c.051.635.18 1.191.358 1.541.208.701.61 1.344 1.219 1.973l.15.754.538.537.15.688 1.124 1.046 2.145-.447.245-.328 1.204-.41.052-.196c.256-1.024.383-1.995.383-2.909.007-2.346-.832-4.326-2.495-5.92l.413-1.258-.043-.126c-.345-.956-.986-1.565-1.862-1.802-1.474-.66-2.924-.295-4.186 1.07l-.198.208.784 1.33-.186.301a.21.21 0 0 1-.054.007h-.167c-.489-.15-.899-.148-1.263-.141-.398.076-.802.158-1.154.338l-.203.102v.172a.494.494 0 0 0-.072.292c0 .088-.071.499-.326 1.158-.324.53-.783.946-1.441 1.308l-.538.514-1.283 2.256-1.733.872-.352 2.905c-3.471-.598-6.524.039-9.086 1.875l-.158.113v1.557l-1.551-.908h-.092c-.171 0-.496 0-.751.186-.753.334-1.255.912-1.453 1.678l-.718.361-.21.486-1.753.458-.152.44c-.125.376-.236.7-.236 1.008 0 .637-.246 1.117-.728 1.423l-.25.16.095.278a7.03 7.03 0 0 1 .358 2.163c0 .302-.019.603-.066.895-.225 1.07-.6 1.808-1.256 2.46l-.084.089-.375 2.199h.768l.311-1.838c.699-.736 1.128-1.592 1.376-2.771.051-.339.078-.688.078-1.034 0-.706-.105-1.427-.31-2.136.551-.444.839-1.094.839-1.889 0-.183.09-.452.198-.757l.017-.061 1.712-.451.251-.573.787-.398.042-.181c.115-.612.478-1.056 1.124-1.353a.56.56 0 0 1 .286-.084l1.191.698.076.478 1.328.558 1.045-1.048v-1.037l-1.133-.08v-.582c2.453-1.701 5.396-2.225 8.748-1.57l.396.076.398-3.301 1.576-.789 1.311-2.331.38-.378c.736-.414 1.284-.922 1.701-1.602.272-.679.39-1.169.402-1.443l.006-.012c.235-.09.523-.15.748-.198.287 0 .618 0 1.017.132l.341.017c.225 0 .433-.093.47-.116l.093-.047.555-.895-.722-1.232c.985-.949 2.049-1.186 3.193-.674.653.178 1.089.567 1.355 1.228l-.484 1.474.181.17c1.619 1.464 2.434 3.322 2.434 5.542 0 .792-.107 1.626-.312 2.507l-1.04.352-.22.279-1.474.31-.677-.618-.148-.675-.525-.528-.146-.758-.083-.078c-.573-.568-.928-1.12-1.134-1.791-.215-.424-.34-1.154-.34-1.953v-.332l-1.286-.157-.063.362c-.547 3.345-1.649 6.75-3.28 10.107l-.139.269 1.835 1.468-.237-1.049a4.31 4.31 0 0 1-.108-.894c0-.431.099-.75.292-.971.294-.322.827-.471 1.596-.429l.456 3.915.359-.032c.932-.076 1.849-.576 2.586-1.406l.059-.079c.107-.233.291-.423.534-.665.989-.233 1.924-.277 2.855-.129l.227.107a.65.65 0 0 0 .076.458c.096.227.366.358.563.358h.115l2.095-1.48.869-.323-.072-.321a1.509 1.509 0 0 1-.037-.314c0-.407.199-.765.616-1.076.177-.175.373-.295.594-.36l-.228 2.076-.919.31-.109 1.646.233.111c1.06.49 2.214.574 3.349.25l.147-.084c.774-.695 1.642-.668 2.22-.523l.088.016c.19 0 .499.074.682.114l1.02.468.178-.125c.286-.199.521-.273.802-.223l-.233.645.653.984 4.838.589.078 1.408 1.33-.271c-.88.75-1.45 1.761-1.807 3.113l-3.243 19.452-.078 1.064c0 1.515.61 2.878 1.734 4.09 1.209 1.132 2.566 1.744 4.072 1.744h14.307l.601-4.173h-10.164c-2.853 0-2.409-1.887-2.34-2.642l3.095-18.699c.226-1.055.978-1.509 2.252-1.509h11.004l.6-4.013h-1.909l-.086-.097c-.162-.158-.308-.176-.438-.142l-.101-1.092.944-.171.188-.039.041-.082a.946.946 0 0 1 .415.246l.115.083c.626.276 1.386.562 2.262.562.204 0 .385-.096.616-.223.066-.027.139-.079.223-.119l.479-.233-.714-.712.13-3.396c2.523.03 4.252-.944 5.111-2.964.275-.646.486-1.195.64-1.678l.975-.352.624-.797c.955-.881 1.828-1.404 2.593-1.555l.115.025.518.616 1.895-.454.074-.061c.577-.51.854-1.084.854-1.774 0-.122-.009-.245-.025-.375l1.805-2.292.837.049.294.806.869.148.414 1.933 1.59-.658 2.095.479c.598.75.885 1.528.885 2.351-.066.846-.419 1.59-1.066 2.31-.429.351-.833.763-1.356 1.284l-.217.22c-.182.253-.402.596-.443 1.047l-.536.545v1.135l1.699.371.204-.709.902-.414.514-.667 3.534-1.232 2.156-.162.709-.932 2.961.594.137-.117c.883-.718 1.328-1.479 1.406-2.312.074-.287.091-.606.096-.89.955-.709 1.933-.736 2.99-.074.237.114.491.385.747.779l.069.092.554.246v1.273l1.771 1.691 3.664 1.075-.089-3.526 1.761-.348.499-1c.237.027.619.06 1.13.06h.115l.521-.353-.146-.887.788-.434v-1.212l-.688-.349c-.241-.529-.365-.983-.365-1.358 0-.186.029-.345.093-.489.141-.354.48-.623 1.023-.826h.799l.042-.324c.032-.214.167-.492.982-.764.878-.382 1.548-.706 2.014-.984l.342.473.18.01c1.295.074 2.342-.13 3.324-.678a5.074 5.074 0 0 0 1.865-2.42c.271-.609.521-1.049.746-1.314l2.755-.417 1.852 1.052 3.297-2.9.954-3.528 1.896-.437.083-.147c.251-.456.385-.905.385-1.36 0-.358-.088-.718-.251-1.08l-.233-.345-1.33-.321 1.727-1.563 1.27-2.632h.551l.093-.056c1.673-1.074 3.367-2.389 5.021-3.899l.059-.067c.058-.062.354-.238.616-.396.188-.116.417-.253.665-.409 2.298.264 3.229-.364 3.617-.939l.208-.306-1.217-.872-.032-.36.319-.103 1.564-3.142c.148.003.289.046.341.093.104.153.241.528.315 1.075 0 .709.426 1.167.845 1.492l.083.683 2.48.783.694 1.604-1.808.06-.155.4-2.61.312-.338 2.008c-.536-.241-1.119-.292-1.761-.144l-.114.023-.322.334.785 1.881 2.188.223.612 1.347a4.126 4.126 0 0 0-1.402 2.222l-.056.209.118.115v.25l4.06.603.861-.946.554-.034-.19.872-.024.141.058.111c.037.09.037.436.037.76l.072 1.288a2.19 2.19 0 0 0-.015.251c0 .598.304 1.074.633 1.469l.53 5.657.557.395.554 2.435-1.389.276-.465 3.072.304.102c.063.021.097.051.217.183.028.035.058.076.101.113.046.158.1.32.155.51l-.056.052v.06l-1.961-.074-.79 4.012 4.107 3.667v.663l1.425-.506 3.082 1.273-.146 2.551 2.245.527-.382 4.619 1.376.325.373 1.359-.351 1.651.288.123c.915.393 1.457 1.171 1.651 2.297 0 .669.141 1.334.396 1.928l-.122.162c-3.575-1.958-6.831-4.073-9.69-6.27l-.986-2.007-.563-.273-.358-1.821-.358-.363-.139-1.543c.011-.239.017-.479.017-.711.004-2.341-.691-4.666-2.111-7.081-.4-.681-.614-1.367-.614-1.997 0-.672.193-1.281.609-1.908l.309-.469-2.767-.589-.329-2.488-1.67.672-1.117 1.38-.176 2.54 2.039.583c.173.259.252.553.252.914 0 .213-.029.451-.083.728-.052.241-.14.495-.285.82l-.616-.21-.234-.844-2.212-.608-.387 1.247a2.424 2.424 0 0 0-.698 1.746c0 .204.022.427.063.658l.12.495.39.154 1.325 4.6.94 1.007-1.787 3.521-1.025.582c-.769.03-1.286.424-1.494 1.146-.672.282-1.083.737-1.308 1.425l-.8 1.83-.165.306-2.113 2.058-1.819.415-.375 3.461-.041.406.203.4-.309.835.521 1.035-.486.989.144 1.596-.498.497-1.024 7.796 1.011 1.103.639-.076a6.095 6.095 0 0 0 1.384 2.454c1.214 1.132 2.571 1.744 4.146 1.744h6.49c.695.442 1.717 1.079 1.788 1.149 1.685 1.342 2.533 3.253 2.533 5.681 0 .515-.037 1.049-.116 1.612a46.503 46.503 0 0 0-.517 6.993c0 1.742.089 3.497.276 5.28l-.351.402-.051.102a3.312 3.312 0 0 1-1.291 1.564c-.553.345-1.253.557-2.054.623-.411 0-.72-.076-.942-.223 0 0-1.315 1.013-1.478 1.099.071-.738.113-1.439.113-2.102 0-.338-.009-.667-.029-.996l-.017-.255-.471-.15-.171-1.578 2.61-1.793.005-.192c.005-.121.005-.243.005-.362 0-2.057-.579-3.716-1.727-4.937l.158-1.99-.241-.111c-1.636-.713-2.602-.321-3.14.157-.532.545-.794 1.441-.794 2.729 0 .176.012.371.021.565 0 .255-.044.458-.231.728-.603.157-1.126.083-1.602-.21-.571-.388-.922-.833-1.133-1.468l-.051-.169-.169-.069c-1.72-.677-3.646-.812-5.712-.394l-.282.058-.017.252c-2.639-3.327-6.155-5.097-10.458-5.24l-.134-.005-.783.629-3.578.488 1.036 9.031c.303.048.577.165.802.354l-1.006-8.732 3.054-.422.726-.586c4.327.184 7.81 2.115 10.338 5.738l.606.874.128-1.75c1.746-.31 3.381-.194 4.854.353.268.707.705 1.245 1.369 1.688.702.443 1.486.526 2.348.272l.111-.037.066-.093c.334-.41.464-.783.464-1.312-.01-.188-.014-.369-.014-.538 0-1.072.191-1.811.558-2.191.573-.498 1.4-.357 2.066-.111l-.141 1.791.125.126c1.082 1.088 1.632 2.61 1.632 4.53v.145l-2.665 1.835.277 2.519.439.141c.011.223.011.454.011.685 0 .809-.058 1.672-.178 2.619l-.063.513.501-.088c.554-.1 1.145-.447 1.703-1.015l.183-.176c.271.087.579.132.937.132h.006c.957-.079 1.773-.327 2.432-.733a4.099 4.099 0 0 0 1.554-1.864l.512-.612-.014-.154a50.295 50.295 0 0 1-.282-5.357c0-2.356.162-4.659.513-6.893.083-.6.117-1.182.117-1.737 0-2.658-.938-4.749-2.787-6.226-.046-.044-.388-.308-.744-.586h2.206l.16-.969.319.343.398 1.74.839.417.184.225.161 1.975h2.785l.059 1.035 3.019 4.462 1.045.175v-1.034l-.532-.693-.052-.919zm-114.877-36.63v-4.386l.322-.169.726 1.841.084.061c.644.484 1.182 1.01 1.67 1.558-1.045.128-1.973.484-2.802 1.095zm11.075-1.161h-3.396l.144-1.854 1.021-1.033 1.494-.311.93-1.636 1.007-.475.469.238a1.973 1.973 0 0 1 .065 1.367c-.137.579-.425 1.033-.95 1.492a1.676 1.676 0 0 1-.783.426l.005.744.042.007c-.034.342-.025.692-.048 1.035zm2.468 0a3.992 3.992 0 0 0-.151-.962.41.41 0 0 0-.021-.115c-.007-.042-.021-.096-.026-.155l.983-.751a.998.998 0 0 1 .473-.105l.472.098.031.065-1.786 1.095.272.336c.163.203.371.328.555.495h-.802zm2.063 0a3.507 3.507 0 0 1-.94-.647l1.53-.93.145 1.577h-.735zm85.242 26.862h-1.885c-.525 0-2.534-.25-2.258-2.417l.305-1.594c.293-1.464 1.66-1.737 2.111-1.737h2.782l-1.055 5.748zm13.32 11.685l-2.027-2.998-.079-1.308 2.795 2.322.689.076.214.319h-.6l-1.074.233.082 1.356zM84.868 45.415c.375.138.765.271 1.163.388a2.706 2.706 0 0 0 1.149.013c.464 0 .872-.076 1.441-.264.006 0 .01-.007.015-.007.366-.15.75-.307.991-.525.019-.018.035-.037.061-.053.352-.283.572-.681.572-1.047 0-.545-.364-.873-.753-1.143-.364-.266-.867-.423-1.381-.58a8.101 8.101 0 0 0-1.145-.274l-.255-.046c-.482 0-.969 0-.969.442v.012c-.037.091-.294.483-2.141 2.063l-.533.449.673.204c.366.112.737.241 1.112.368zm1.585-2.777c.063-.004.148-.004.199-.01l.188.037c.327.061.692.135 1.06.255.466.136.898.276 1.177.479.431.298.431.431.431.522 0 .084-.061.251-.265.434-.011.012-.023.016-.037.025l-.032.033c-.171.167-.509.301-.834.439a3.888 3.888 0 0 1-1.235.214c-.321.065-.646.065-.873.009-.37-.113-.746-.24-1.112-.376-.167-.058-.336-.113-.5-.171 1.332-1.172 1.725-1.64 1.833-1.89zm-1.164 18.338c.237-.058.476-.111.719-.141-.012-.014-.027-.023-.041-.039l-.711-.913.033 1.093zm-.488 35.67l-.24-.637-.239-.201c-1.142-.54-1.919-1.34-2.377-2.461-.329-.77-.501-1.439-.501-2.048v-.243l-.829-.378-.071-2.095-.083-.097c-.828-.969-1.269-2.252-1.269-3.693 0-.464-.147-.82-.444-1.049l.577-.916h2.948v-.938l1.859.222.068-1.009c-.249-.052-.495-.14-.74-.221l-.028.382-1.904-.225v1.031H78.91l-1.268 2.022.454.156c.228.068.344.176.344.544 0 1.578.47 2.981 1.359 4.077l.079 2.304.827.373c.035.646.215 1.334.544 2.099.519 1.247 1.413 2.194 2.669 2.809l.195.507.046.082c.375.546.909.892 1.557 1.027l.019.111c.265.002 3.503 1.243 3.759 1.256l.407-.481-3.813-1.597c-.558-.059-.979-.293-1.287-.713z"/><path d="M139.851 44.792l2.579.313.319-4.021 3.489-2.87 1.017-.253.179-.451 2.423-1.646a15.542 15.542 0 0 1 5.553-1.024h.145l1.88-1.706-.677-1.914-2.115.973-3.523.14-.138-.058c-.72-.18-1.32-.15-1.854.084a3.094 3.094 0 0 0-1.447.92l-.315.05-1.747 1.058v-.521l-1.909.905-.507.77-.239.839c-1.029.148-1.729.793-2.021 1.848l-.275.057-.243.314-.834.255-.741 2.619.689.351.312 2.968zm.347-5.338l.681-.206.211-.287.486-.095.047-.245c.19-.953.716-1.446 1.615-1.514l.146-.007.246-.26.229-.936.359-.542.648-.306v.689l2.699-1.686.512-.084.084-.106a2.482 2.482 0 0 1 1.217-.807c.4-.167.804-.194 1.315-.079l.113.116 3.938-.157 1.571-.692.241.659-1.295 1.17c-1.948.018-3.82.375-5.707 1.088l-2.743 1.848-.12.302-.714.181-3.953 3.207-.286 3.554-1.2-.146-.293-2.788-.505-.253.458-1.618zm73.28 61.751l-.179.623c-.521.354-1.055.321-1.636-.083l-.142-.105c-.447-.314-.827-.586-1.063-.882l-.246-.309-1.596 1.401-.204.965c-.454.15-.908.349-1.361.602h-.054c-.239 0-.36.178-.423.267-.016.019-.082.091-.162.227-2.052 1.397-4.265 1.922-6.547 1.562l-2.328-.606-.101-.009c-.132 0-.235.029-.382.07h-.354l-.146 2.8c-1.575-.041-2.884-.353-3.996-.94-1.244-.626-2.329-1.602-3.327-2.982l-.079-.11-.125-.035c-1.563-.431-3.521-.748-6.165-1.001l-.199-.017-.125.153a2.943 2.943 0 0 0-.736 1.97c0 .194.016.384.046.584.021.178.028.363.028.559 0 .499-.063 1.047-.2 1.637l-.169.084-8.994-2.574-.078.412c-.193 1.078-.849 1.583-1.983 1.59l-1.185-.16a2.51 2.51 0 0 1-.463-.042c-.134-.014-.243-.031-.364-.031h-.213l-.895 1.48-1.153.838-5.643-1.276-.349-1.271.546-.154-.665-.454c-1.001-.7-2.24-1.058-3.681-1.058-.084 0-.19.017-.306.037-.095.017-.197.037-.297.037h-.093l-.033.017-.296-.664-1.807-.223-.219-1.342a2.15 2.15 0 0 1-.728.223l.292 1.802 1.949.234.286.642.258.482.38-.377c.032-.013.063-.026.097-.035.121-.012.234-.033.349-.049a.683.683 0 0 1 .167-.025c.938 0 1.771.167 2.497.491l-.415.115 1.062.756.398 1.457 6.415 1.448 1.49-1.082.804-1.272c.021 0 .035 0 .056.005.16.023.348.051.521.047l1.182.155c1.404 0 2.324-.619 2.688-1.801l8.498 2.433.742-.37.042-.17a8.302 8.302 0 0 0 .259-1.983 5.81 5.81 0 0 0-.03-.666 2.774 2.774 0 0 1-.041-.466c0-.501.146-.955.436-1.351 2.428.237 4.251.53 5.715.922 1.041 1.427 2.196 2.443 3.508 3.104 1.301.693 2.837 1.031 4.696 1.031h.361l.146-2.874 2.291.592c2.55.402 4.973-.175 7.206-1.727l.074-.056.047-.083c.041-.079.074-.123.074-.123.015-.016.031-.03.043-.047h.1l.089-.048a6.58 6.58 0 0 1 1.496-.646l.213-.061.258-1.168.833-.725c.268.254.585.479.941.734l.146.102c.783.55 1.59.585 2.327.162-.03-.078-.076-.152-.076-.236 0-.584.736-1.054 1.653-1.075a1.657 1.657 0 0 1-.479-.321l-1.174.313zm-65.599-6.801h-.121l-.528.385-3.366.067c-.196-.614-.579-1.315-1.143-2.081-.486-.479-.961-.733-1.499-.78l-.46-.599c.219-.28.336-.54.397-.731l.015-.118v-.008c0-.321 0-.685-.167-1.021-.091-.265-.199-.543-.547-.693l-1.063-.336-.586-1.093-1.314 1.037c-4.015.287-7.881-.192-11.489-1.425l-.687-.234.761 2.602-.014.028-1.411-.449-.878 1.59-.329.33-1.381.232-.091.125c-.275.354-.412.726-.412 1.089 0 .405.174.797.521 1.147.1.097.204.178.278.229l.402 1.483-1.631.051-1.276-2.262v1.272a1.72 1.72 0 0 1-.155-.054l-.843-2.382-2.341-.396-.282-.348-3.379-1.696-1.12-3.169-.126-.067c-2.583-1.462-5.147-1.718-7.845-.788l-.171.063-.204.618-.475.04-1.291-2.669-3.952 2.846-.432 2.423.986 1.453c-.007.13-.011.254-.011.384 0 .449.063.915.196 1.379.148.442.353.857.594 1.207l-.658 1.312c-1.904.583-3.962.62-6.114.1l-.465-.116v.479c0 1.129-.186 2.223-.469 3.267.088-.016.172-.058.265-.058.18 0 .345.056.507.113.238-.912.41-1.862.445-2.852 2.176.459 4.265.371 6.213-.262l.15-.046 1.004-2.025-.146-.188a4.044 4.044 0 0 1-.607-1.154 4.17 4.17 0 0 1-.167-1.156c0-.148.009-.291.027-.438l.019-.142-.975-1.425.329-1.816 2.972-2.152 1.117 2.333 1.489-.121.247-.738c2.369-.767 4.64-.536 6.92.726l1.14 3.186 3.45 1.691.419.503 2.178.368.815 2.308.319.111c.232.083.474.15.695.093l.573 1.019 3.037-.099-.653-2.429-.162-.334-.101-.053s-.108-.056-.21-.155c-.2-.204-.293-.403-.293-.614a.95.95 0 0 1 .167-.515l1.312-.222.548-.54.667-1.177 1.44.461.436-.883-.444-1.499c3.55 1.111 7.31 1.526 11.216 1.235l.113-.007.798-.633.311.581 1.302.403c.012.01.037.032.125.28.106.204.111.429.111.68a1.844 1.844 0 0 1-.418.625l-.237.236 1.077 1.393h.189c.408 0 .761.178 1.117.527.542.749.926 1.483 1.07 2.063l.074.292 4.18-.084.519-.371c.584.028.621.27.658.482.449 1.538 1.057 2.848 1.784 3.96.134-.228.292-.426.49-.593-.627-1.004-1.148-2.18-1.549-3.528-.064-.49-.385-1.083-1.496-1.083zM208.7 25.989h1.252l.104-.121a.613.613 0 0 0 .151-.234c.375-.445.564-.85.564-1.207 0-.051-.006-.097-.011-.143a.848.848 0 0 0-.396-.596l-.22-.128-1.237.911a.944.944 0 0 0-.412.111l-.487.229.383.38.309.798zm1.269-1.353a2.342 2.342 0 0 1-.389.564l-.364.025-.009-.029.762-.56zm5.769 36.141l-3.31 20.44h6.174l1.58-9.921h4.667l-1.579 9.921h6.175l3.32-20.44h-6.177l-1.063 6.506h-4.662l1.054-6.506zM178.16 87.644l1.126-6.503h5.88c1.502 0 2.785-.536 3.761-1.441 1.054-1.057 1.736-2.197 1.961-3.559 0 0 1.503-9.082 1.503-9.538.196-1.653-.525-3.026-1.728-4.165-1.06-1.208-2.415-1.737-4.078-1.737h-10.157l-4.449 26.943h6.181zm3.687-22.854h1.953c.686 0 1.212.227 1.663.679.891.901.681 1.965.681 1.965l-1.361 7.573c-.229 1.358-.982 2.037-2.262 2.037h-2.703l2.029-12.254zm18.002 2.493c-2.94 0-5.204 1.471-5.722 4.617l-.386 2.502c0 .225-.071.53-.071.901 0 1.673.598 3.031 1.654 4.169 1.214 1.132 2.567 1.744 4.143 1.744h10.245s2.335-14.232 2.335-14.688c.297-1.694-.525-2.881-1.734-4.017-1.129-1.206-2.491-1.734-4.146-1.734h-10.155l-.608 4.013h8.064c.596 0 1.2.227 1.733.829.521.604.751 1.136.596 1.664h-5.948zm4.214 9.761h-1.887c-.521 0-2.516-.449-2.254-2.417l.223-1.594c.231-.6.454-.982.831-1.202.45-.385.904-.535 1.431-.535h2.708l-1.052 5.748zm-38.559 4.173l2.631-16.355h4.674l.676-4.085h-15.519l-.676 4.085h4.676l-2.561 16.355zM295.796 60.7l-2.782 16.422h-1.886c-.827 0-1.276-.225-1.654-.606-.383-.451-.601-.98-.601-1.666l.071-.531 2.111-13.618h-6.179L282.54 74.7s-.079.308-.079.762c0 1.661.607 3.028 1.74 4.156 1.05 1.062 2.408 1.671 4.143 1.671h4.141l-.148.455c-.157.527-.456.981-.906 1.436-.375.383-.903.605-1.501.605h-8.895l-.677 4.246h12.206c1.42 0 2.706-.541 3.906-1.448 1.138-.981 1.737-2.191 1.962-3.554l3.619-22.328h-6.255zm-31.483 34.439a19.69 19.69 0 0 1 1.889-.076l1.882-13.774h6.025c1.509 0 2.781-.537 3.837-1.44 1.058-.982 1.733-2.121 1.963-3.557l1.43-8.631s.564-2.973-1.585-5.299c-1.129-1.132-2.635-1.661-4.214-1.661h-10.319l-5.404 34.823c1.17-.2 2.669-.385 4.496-.385zm6.405-30.349h1.958c2.637 0 2.412 2.571 2.333 2.722l-1.281 7.646c-.225 1.287-.973 1.965-2.333 1.965h-2.71l2.033-12.333zm20.113 31.26c-.701.064-11.649.398-14.131.567-.025.132-.047.264-.076.39-.053.259-.095.502-.137.708-.201.344-1.085 1.641-3.131 1.965-.389.06-.863.119-1.42.171-.844.078-1.877.138-3.102.138h-2.563c-1.122 0-6.439.297-7.675.521l-.009.002-.75 4.921c1.206-.308 2.938-.459 4.974-.459.682-.073 1.579-.073 2.635-.073h2.637c1.202 0 2.21-.05 3.044-.126.579-.05 1.072-.111 1.474-.176 1.355-.303 1.949-.42 2.632-1.437l.353-.559c.028-.157.063-.378.115-.64.021-.122.037-.243.067-.377.046-.005.096-.009.146-.019 1.43-.145 3.392-.221 5.951-.299.979 0 2.408-.077 4.294-.155 1.81 0 3.01-.072 3.844-.15a13.37 13.37 0 0 0 3.089-.528c.892-.383 1.503-.83 1.879-1.441l.234-.602c.011-.015.011.011.011.048.021-.089.037-.176.054-.276.154-.532.301-1.436.525-2.724.074-.452.15-.911.225-1.291l.137-.644c0 .002 0 .009-.011.013-.125.312-1.1 2.161-5.315 2.532z"/></g><path fill="#EC1C24" d="M294.972 98.994c-.376.611-.987 1.059-1.879 1.441-.756.225-1.813.461-3.089.528-.834.078-2.034.15-3.844.15-1.886.078-3.315.155-4.294.155-2.56.078-4.521.154-5.951.299-.051.01-.101.014-.146.019-.03.134-.047.255-.067.377-.053.262-.087.482-.115.64l-.353.559c-.683 1.017-1.276 1.134-2.632 1.437-.401.064-.895.126-1.474.176-.834.076-1.842.126-3.044.126h-2.637c-1.056 0-1.953 0-2.635.073-2.036 0-3.768.151-4.974.459l-.751 4.919c.679-.072 1.884-.15 3.768-.221l5.117-.085c2.111-.069 3.246-.103 4.824-.375 2.731-.474 3.686-2.496 3.837-2.8.005-.013.012-.019.012-.027 1.656-.319 3.809-.515 6.468-.574l3.909-.153c1.357 0 2.491-.076 3.396-.229 4.907-.638 6.154-2.478 6.553-5.52.062-.468.245-1.666.245-1.928 0-.037 0-.063-.011-.048l-.233.602z"/><path fill="#262626" d="M253.62 75.535l-.492 3.043-.122.772-.29 1.791h5.577l.898-5.606z"/><path fill="#4D4D4F" d="M41.94 47.081c-3.039 0-5.417 1.18-7.467 3.148l-2.969-2.631.214-3.508c0-.041.042-.289.042-.326a24.76 24.76 0 0 0 1.116-1.873c.148-.037.322-.107.552-.233.765-.438.889-1.252 1.07-1.875.106-.375-.126-.827-.436-1.144-.101-.093-.513-.584-1.062-.682a66.985 66.985 0 0 1-1.937-.385l-7.775-4.291c-3.605-1.715-5.779-2.795-7.252-3.405l.023-.052s1.82.684 2.602-.644c.192-.332.245-.474.424-.788.042.009.076.019.113.023.359.084.651.027.544-.422-.092-.407.21-1.469.21-1.469l-.015.004c.005-.004.005-.004.005-.014.75-.176 1.371-.593 1.653-1.406.844-2.344-3.233-4.207-6.384-3.223-2.188.686-2.614 1.524-2.614 1.524s.361.444.926.974c-.295.563-.467 1.266-.569 2.024-.037.228-.171.598-.353 1.015a8.613 8.613 0 0 1-1.121 1.239c-1.089.974-2.122 1.388-2.831 2.271a.408.408 0 0 0-.064.119 11.147 11.147 0 0 0-1.8 2.191c-2.649 4.193-4.711 8.489-4.711 8.489s-1.74 3.805-.167 6.501c.674 1.175 3.093 2.486 4.843 3.31 3.194 1.494 6.53 3.899 6.53 3.899s.121 2.56.61 4.944a10.536 10.536 0 0 0-1.222-.072c-6.283 0-11.399 5.139-11.399 11.457 0 6.323 5.116 11.462 11.399 11.462 6.286 0 11.399-5.139 11.399-11.462 0-.032-.005-.063-.005-.096.25.059.512.096.781.096a3.487 3.487 0 0 0 3.486-3.496 3.501 3.501 0 0 0-1.418-2.806c.899-1.244 2.083-2.883 2.326-3.206.401-.549-.074-.771-.074-.771s-.662-.67-1.153-.399l3.229-11.393 2.067 1.831a11.46 11.46 0 0 0-2.375 6.974c0 6.315 5.118 11.46 11.396 11.46 6.28 0 11.017-5.107 11.017-11.423s-5.115-11.46-11.404-11.46zM12.669 81.19c-5.16 0-9.367-4.225-9.367-9.42 0-5.19 4.207-9.416 9.367-9.416.617 0 1.228.063 1.807.181.109.27.214.523.33.746.076.15.154.301.237.459l-2.229 6.103c-.048-.005-.1-.016-.146-.016a1.935 1.935 0 0 0-1.925 1.943c0 1.075.859 1.946 1.925 1.946a1.935 1.935 0 0 0 1.933-1.946v-.032l3.248-1.086c.111.59.375 1.169 1.126 1.014.661-.142 1.874-.49 3.017-.834.025.311.047.626.047.938 0 5.196-4.203 9.42-9.37 9.42zm3.258-15.645c.721 1.52 1.372 3.003 1.663 3.66l-3.413 1.146 1.75-4.806zm3.341-.447a9.378 9.378 0 0 1 2.068 3.109c-1.276-.097-1.855-.461-1.855-.461s-.095-1.077-.213-2.648zm3.109.707a11.468 11.468 0 0 0-3.309-3.51c-.03-.457-.056-.928-.088-1.396 1.469 1.538 3.083 2.291 4.418 4.058.025.037.047.066.071.108a3.523 3.523 0 0 0-1.092.74zm3.66-3.101c-.593.27-1.089.383-1.089.383l-3.15-5.482 7.863-7.654-3.624 12.753zm3.703-14.858l-8.691 8.458-2.615-4.574c-.568-1.32-1.506-2.113-2.11-2.558-.943-.687-2.134-1.786-5.113-4.765L13.61 39.1l4.615 2.882s7.637 3.376 8.416 3.692c.34.14.627.221.866.281a.845.845 0 0 0-.015 1.042.852.852 0 0 0 .695.353.876.876 0 0 0 .52-.172c.037-.034.088-.076.13-.113.102.146.231.264.416.285a1.21 1.21 0 0 0 .528-.074l-.041.57zm-.037-4.196a.185.185 0 0 1-.042-.017c-.702-.068-2.681-.146-2.681-.146s-4.406-2.612-6.119-3.704c-1.719-1.093-5.324-4.119-5.324-4.119l.996-1.575s4.551 1.527 6.17 2.326c1.622.806 7.9 3.368 7.9 3.368.017.478.388.996.695 1.358a19.226 19.226 0 0 1-1.595 2.509zM42.33 67.922c-5.153 0-9.359-4.224-9.359-9.418 0-2.105.696-4.05 1.873-5.625l5.67 5.014a1.883 1.883 0 0 0-.111.611c0 1.072.864 1.948 1.928 1.948 1.078 0 1.939-.876 1.939-1.948s-.861-1.944-1.939-1.944c-.202 0-.39.043-.579.101l-5.747-5.076c1.67-1.542 3.889-2.495 6.326-2.495 5.176 0 9.377 4.223 9.377 9.415-.001 5.193-4.202 9.417-9.378 9.417z"/><path fill="#FFF" d="M215.713 101.348c.035 0 .063.019.097.019.056 0 .103-.025.155-.031a2.184 2.184 0 0 0-.208-.059l-.044.071z"/><path fill="none" d="M87.029 67.059l-.608 3.405h4.664l.54-2.952c.143-.909.338-2.722-2.42-2.722-1.2 0-1.955.755-2.176 2.269z"/><path fill="#4D4D4F" d="M77.458 63.499c.08 0 .154-.076.154-.076 1.052-.985 1.653-2.117 1.955-3.482l.528-3.859c0-1.664-.528-3.026-1.656-4.085-1.132-1.212-2.561-1.814-4.141-1.814H58.557l-5.126 31.035h17.477c1.584 0 2.862-.466 3.989-1.369 1.057-.982 1.735-2.121 1.96-3.482 0 0 1.546-9.61 1.583-9.763.27-1.184-.314-2.269-.982-3.105zm-5.421 4.013l-1.204 7.569c-.232.61-.45 1.06-.827 1.363-.527.375-.98.6-1.507.6h-6.404l2.111-12.254h5.644c.677 0 1.282.227 1.738.829.449.454.528 1.136.449 1.893zm1.813-10.598l-.307 1.74c-.153.61-.454 1.06-.825 1.441-.38.301-.983.528-1.51.528h-6.399l1.13-6.355h5.728c.45 0 1.052.223 1.576.672.527.533.757 1.141.607 1.974zm54.145 24.303c1.351 0 2.563-.538 3.765-1.448 1.131-.98 1.81-2.112 2.03-3.324l1.508-9.386c.324-1.734-.449-3.56-1.649-4.621-1.057-1.132-2.491-1.66-4.147-1.66h-5.269c-1.354 0-2.563.378-3.695 1.285-1.133.679-1.813 1.816-2.032 3.327l-1.437 8.858c0 .154-.067.53-.067 1.056 0 1.673.605 3.031 1.657 4.169 1.202 1.132 2.558 1.744 4.143 1.744h5.193zm-4.599-6.899l1.206-7.563c.231-1.365.981-1.965 2.111-1.965 2.532 0 2.406 2.194 2.338 2.571l-1.279 7.646c-.228 1.358-.98 2.037-2.257 2.037-.607 0-2.552 0-2.119-2.726zm-10.011 6.899l3.241-20.366H110c-2.559 0-4.444 1.134-5.577 3.562l-8.058 16.805h6.098l7.381-16.2-2.631 16.2h6.172zM96.138 62.512c-1.127-1.206-2.488-1.734-4.065-1.734h-2.912l-3.153.058a6.088 6.088 0 0 0-.719.141 5.576 5.576 0 0 0-2.182 1.087c-1.126.911-1.8 2.041-2.039 3.406l-1.427 8.699c0 .234-.074.61-.074 1.06 0 1.592.603 3.033 1.653 4.245.531.532 1.136.983 1.813 1.278.142.058.282.083.427.132.245.081.491.169.74.221.362.071.726.113 1.089.113h10.317l.531-4.173h-7.981a2.33 2.33 0 0 1-1.661-.679 2.355 2.355 0 0 1-.672-1.666v-.072h10.839l1.128-7.043c.076-.224.191-3.268-1.652-5.073zm-4.513 5l-.54 2.952h-4.664l.608-3.405c.221-1.514.976-2.269 2.176-2.269 2.758 0 2.563 1.813 2.42 2.722zm-34.926 36.621l.584-3.955c.155-1.038.371-2.36.639-3.741h-.041a70.82 70.82 0 0 1-1.652 3.614l-1.962 3.925h-1.595l-.342-3.884a113.516 113.516 0 0 1-.213-3.655h-.028c-.269 1.265-.554 2.703-.797 3.741l-.952 3.955h-1.88l2.405-9.59h2.748l.296 3.642c.059.897.158 1.993.173 3.06h.055c.371-1.066.884-2.189 1.298-3.06l1.777-3.642h2.773l-1.293 9.59h-1.993zm7.006-6.957l-.683 2.689h.027c.457-.398 1.182-.642 1.821-.642 1.123 0 1.906.697 1.906 1.907 0 1.508-1.265 3.13-3.813 3.13-1.095 0-2.361-.256-2.361-1.678 0-.398.113-1.011.199-1.409l.882-3.998h2.022zm1.066 4.325c0-.512-.299-.812-.797-.812-.611 0-1.123.54-1.251.969a1.53 1.53 0 0 0-.086.526c0 .368.243.625.753.625.656.001 1.381-.511 1.381-1.308zm5.705-4.325l-1.335 6.957h-2.149l1.339-6.957h2.145zm4.419 2.703h.813c.681 0 1.45-.199 1.45-.726 0-.456-.442-.668-.996-.668-.542 0-1.223.184-1.722.441l-.34-1.239a5.447 5.447 0 0 1 2.529-.64c1.141 0 2.69.341 2.69 1.794 0 .966-.896 1.478-1.777 1.649l-.014.014c.767.127 1.577.639 1.577 1.607 0 1.681-1.934 2.148-3.315 2.148-1.023 0-1.992-.2-2.759-.697l.525-1.365c.557.326 1.31.567 2.007.567.653 0 1.381-.241 1.381-.794 0-.585-.67-.77-1.423-.77h-.824l.198-1.321zm8.511-2.703l-.484 2.562h2.12l.484-2.562h2.048l-1.322 6.957h-2.049l.54-2.816h-2.118l-.528 2.816H80.05l1.309-6.957h2.047zm9.182 6.957c.015-.412.042-.883.084-1.381h-.028c-.668 1.154-1.566 1.538-2.377 1.538-1.252 0-2.104-.968-2.104-2.419 0-2.349 1.563-4.852 4.992-4.852.825 0 1.722.156 2.292.341l-.697 3.643c-.172.896-.313 2.262-.285 3.13h-1.877zm.555-5.505a2.949 2.949 0 0 0-.54-.058c-1.34 0-2.306 1.622-2.306 2.917 0 .683.271 1.151.839 1.151.625 0 1.395-.697 1.707-2.405l.3-1.605zm8.54 5.106c-.812.413-1.822.556-2.604.556-1.977 0-3.001-1.126-3.001-2.946 0-2.12 1.534-4.324 4.055-4.324 1.409 0 2.419.798 2.419 2.091 0 1.765-1.724 2.404-4.527 2.332.017.2.088.513.23.712.271.356.738.542 1.336.542.755 0 1.395-.172 1.951-.442l.141 1.479zm-1.808-5.221c-.953 0-1.508.797-1.652 1.438 1.608.015 2.405-.199 2.405-.855 0-.34-.283-.583-.753-.583zm7.314-1.352l.273 2.718c.041.413.084 1.011.125 1.636h.029c.169-.398.555-1.182.911-1.877l1.295-2.477h2.603l-.923 6.972h-1.895l.429-2.789c.085-.596.257-1.622.382-2.317h-.056c-.213.496-.612 1.293-1.037 2.147l-1.466 2.846h-1.565l-.271-2.759c-.072-.783-.141-1.639-.183-2.25h-.059c-.154.755-.37 1.793-.512 2.376l-.683 2.746h-1.808l1.837-6.972h2.574zm8.731 4.24c0-2.404 1.677-4.395 4.153-4.395 1.88 0 2.959 1.278 2.959 2.872 0 2.547-1.749 4.411-4.155 4.411-1.775.001-2.957-1.152-2.957-2.888zm4.994-1.507c0-.64-.287-1.323-1.098-1.323-1.179 0-1.777 1.722-1.777 2.804 0 .811.413 1.351 1.124 1.351 1.109-.001 1.751-1.651 1.751-2.832zm12.225-1.166c0 .91-.895 1.465-1.622 1.65v.027c.728.086 1.453.557 1.453 1.453 0 1.835-2.148 2.416-3.673 2.416-1.791 0-2.729-.682-2.729-2.147 0-1.279.555-3.557 1.808-4.468.611-.426 1.351-.652 2.261-.652 1.521 0 2.502.553 2.502 1.721zm-4.44 2.646a3.272 3.272 0 0 0-.084.653c0 .483.241.838.926.838.796 0 1.351-.396 1.351-.951 0-.585-.497-.754-1.052-.754a3.6 3.6 0 0 0-1.141.214zm.243-1.31c.554-.086 1.165-.186 1.638-.398.325-.158.596-.385.596-.711 0-.344-.299-.557-.726-.557-.909 0-1.295.898-1.508 1.666zm10.746 3.67c-.811.413-1.82.556-2.604.556-1.977 0-3-1.126-3-2.946 0-2.12 1.533-4.324 4.055-4.324 1.408 0 2.419.798 2.419 2.091 0 1.765-1.724 2.404-4.528 2.332.017.2.089.513.229.712.271.356.739.542 1.338.542.755 0 1.394-.172 1.95-.442l.141 1.479zm-1.807-5.221c-.952 0-1.509.797-1.651 1.438 1.608.015 2.404-.199 2.404-.855 0-.34-.282-.583-.753-.583zm10.53-1.352l-1.32 6.972h-2.034l1.01-5.392h-1.538l-.269 1.323c-.344 1.764-.797 2.76-1.524 3.386-.51.497-1.135.782-2.162.782l-.127-1.608c.426-.041.769-.185 1.01-.426.439-.398.739-1.154.938-2.178l.54-2.859h5.476zm.675 4.24c0-2.404 1.68-4.395 4.154-4.395 1.878 0 2.958 1.278 2.958 2.872 0 2.547-1.749 4.411-4.154 4.411-1.779.001-2.958-1.152-2.958-2.888zm4.993-1.507c0-.64-.286-1.323-1.095-1.323-1.182 0-1.779 1.722-1.779 2.804 0 .811.412 1.351 1.124 1.351 1.11-.001 1.75-1.651 1.75-2.832zm7.928 4.012c-.44.213-1.151.368-1.977.368-1.722 0-2.931-1.053-2.931-2.845 0-2.475 1.891-4.41 4.539-4.41.598 0 1.109.113 1.422.228l-.512 1.58a2.355 2.355 0 0 0-.94-.171c-1.45 0-2.36 1.237-2.36 2.546 0 .952.611 1.437 1.367 1.437.595 0 1.023-.141 1.378-.285l.014 1.552zm4.386-6.73l-.711 3.728c-.058.326-.1.669-.1.925 0 .442.186.796.697.796.695 0 1.408-.838 1.678-2.219l.611-3.229h2.034l-.88 4.695a58.7 58.7 0 0 0-.371 2.262h-1.807l.127-1.138h-.027c-.712.911-1.551 1.295-2.392 1.295-1.124 0-1.791-.627-1.791-1.95 0-.368.042-.797.142-1.279l.739-3.885h2.051zm4.628 6.957l.881-4.694c.171-.883.285-1.638.385-2.263h1.807l-.127 1.153h.028c.655-.896 1.508-1.31 2.433-1.31 1.137 0 1.792.698 1.792 1.907 0 .313-.058.825-.113 1.165l-.769 4.041h-2.063l.74-3.855a4.71 4.71 0 0 0 .071-.77c0-.497-.172-.839-.698-.839-.668 0-1.449.839-1.734 2.375l-.584 3.089h-2.049zm13.918-.399c-.811.413-1.821.556-2.602.556-1.979 0-3.003-1.126-3.003-2.946 0-2.12 1.536-4.324 4.055-4.324 1.409 0 2.419.798 2.419 2.091 0 1.765-1.722 2.404-4.525 2.332.015.2.087.513.228.712.271.356.741.542 1.34.542.752 0 1.392-.172 1.948-.442l.14 1.479zm-1.806-5.221c-.952 0-1.507.797-1.649 1.438 1.606.015 2.404-.199 2.404-.855 0-.34-.285-.583-.755-.583zm4.897-4.609c.612.171 1.466.142 2.078.199 1.052.113 1.85.37 2.447.924.824.697 1.124 1.879 1.124 3.217 0 2.659-1.18 6.046-4.367 6.046-1.765 0-2.833-1.081-2.833-2.889 0-2.048 1.438-4.24 3.657-4.24.938 0 1.536.456 1.834 1.151h.045c.014-.141.014-.312.014-.426.014-.513-.172-1.138-.611-1.509-.456-.439-1.124-.581-1.992-.639-.427-.042-.854-.059-1.365-.157l-.031-1.677zm3.288 6.216c0-.682-.258-1.423-1.024-1.423-1.154 0-1.707 1.652-1.693 2.745 0 .698.285 1.34 1.023 1.34 1.097 0 1.68-1.738 1.694-2.662zm7.488 4.013c.017-.412.045-.883.086-1.381h-.028c-.669 1.154-1.565 1.538-2.376 1.538-1.251 0-2.104-.968-2.104-2.419 0-2.349 1.564-4.852 4.993-4.852.825 0 1.722.156 2.292.341l-.697 3.643c-.172.896-.313 2.262-.285 3.13h-1.881zm.556-5.505a2.949 2.949 0 0 0-.54-.058c-1.339 0-2.306 1.622-2.306 2.917 0 .683.27 1.151.839 1.151.626 0 1.395-.697 1.708-2.405l.299-1.605zm5.483-1.452l.412 1.04c.213.554.343.908.441 1.165h.043c.254-.37.439-.684.738-1.109l.77-1.096h2.347l-2.931 3.387 1.622 3.57h-2.247l-.44-1.109c-.2-.499-.315-.854-.443-1.266h-.041c-.199.327-.385.682-.697 1.165l-.839 1.21h-2.363l3.017-3.601-1.636-3.356h2.247zm13.805 1.552c0 .91-.896 1.465-1.622 1.65v.027c.726.086 1.451.557 1.451 1.453 0 1.835-2.148 2.416-3.67 2.416-1.794 0-2.732-.682-2.732-2.147 0-1.279.554-3.557 1.805-4.468.614-.426 1.354-.652 2.264-.652 1.522 0 2.504.553 2.504 1.721zm-4.438 2.646a3.002 3.002 0 0 0-.087.653c0 .483.241.838.926.838.796 0 1.351-.396 1.351-.951 0-.585-.499-.754-1.052-.754-.414 0-.871.113-1.138.214zm.24-1.31c.556-.086 1.168-.186 1.636-.398.328-.158.598-.385.598-.711 0-.344-.299-.557-.726-.557-.909 0-1.295.898-1.508 1.666zm10.034 3.842c-.439.213-1.151.368-1.976.368-1.722 0-2.932-1.053-2.932-2.845 0-2.475 1.893-4.41 4.539-4.41.599 0 1.11.113 1.423.228l-.513 1.58a2.355 2.355 0 0 0-.94-.171c-1.449 0-2.36 1.237-2.36 2.546 0 .952.611 1.437 1.367 1.437.595 0 1.023-.141 1.379-.285l.013 1.552zm6.776-.172c-.811.413-1.821.556-2.603.556-1.979 0-3.002-1.126-3.002-2.946 0-2.12 1.536-4.324 4.054-4.324 1.408 0 2.419.798 2.419 2.091 0 1.765-1.722 2.404-4.524 2.332.014.2.085.513.227.712.271.356.742.542 1.339.542.754 0 1.394-.172 1.948-.442l.142 1.479zm-3.77-8.421c0-.642.484-1.068 1.082-1.068.553 0 .924.413.924.94 0 .653-.47 1.066-1.067 1.066-.499 0-.939-.355-.939-.938zm1.963 3.2c-.953 0-1.507.797-1.651 1.438 1.608.015 2.406-.199 2.406-.855 0-.34-.285-.583-.755-.583zm.968-3.2c0-.642.484-1.068 1.082-1.068.554 0 .924.413.924.94 0 .653-.471 1.066-1.068 1.066-.512 0-.938-.355-.938-.938zm2.166 7.81c0-.753.569-1.423 1.381-1.423.682 0 1.166.498 1.166 1.195 0 .811-.584 1.395-1.409 1.395-.684 0-1.138-.497-1.138-1.167zm.839-2.134l.925-6.446h2.205l-1.536 6.446h-1.594z"/><path fill="#0092D7" d="M205.936 26.192l1.234-1.566h-2.407l-.098.072c-.769.563-1.169 1.393-1.169 2.411 0 .103.004.2.011.304l-.285.129-.713-.29-1.136.29.503 1.273 2.189 1.265 2.041-.37.388-1.975-.559-.488v-1.055zm-.468 2.87l-1.265.227-1.725-.996-.09-.232.064-.016.781.317 1.086-.481-.039-.283a4.267 4.267 0 0 1-.035-.5c0-.734.255-1.297.77-1.715h.603l-.434.547v1.663l.486.427-.202 1.042zm4.902.625a.573.573 0 0 0-.362.107l-.05.009c-.01.002-.019.004-.028.004-.25.046-.469.079-.561.052h-.003c-.048-.015-.071-.023-.134-.265l-.035-.088a.593.593 0 0 0-.427-.315.53.53 0 0 0-.365.074 1.425 1.425 0 0 0-.829.594l-.04.088c-.102.31-.178.64-.243 1.04l-.037.22 1.502 1.184 1.749-1.915.09-.015v-.088l.628-.686h-.855zm-1.698 1.679l-.599-.475a5.72 5.72 0 0 1 .161-.658.648.648 0 0 1 .338-.23c.083.232.217.443.519.559l.037.016c.074.021.148.037.228.041l-.684.747zm-31.239-5.591l-4.112.569.52 2.499 1.95.097.545-.959-.412-.482 1.509-1.724zm-2.013 2.294l-.054.096-.908-.047-.238-1.137 1.312-.18-.603.688.491.58zm7.578 1.725l-1.366-.813-1.959-.592-.15-.307-1.513-1.186-.92.527-.093 3.295 6.757.447-.756-1.371zm-5.227.219l.062-2.143.122-.074.934.707.26.516 2.143.638 1.122.665-4.643-.309zm-4.042-4.268l.347-.233c.145-.093.278-.179.462-.373.196-.29.291-.656.291-1.116v-.039c-.004-.414-.089-.705-.291-1.004v-.002a1.022 1.022 0 0 0-.837-.464c-.392 0-.704.157-.915.46l-.007.01c-.202.317-.285.614-.285 1.039 0 .449.098.822.339 1.174l.225.223.066.109h.158c.017.006.072.024.248.115l.199.101zm-.307-1.023l-.013-.002c-.109-.165-.163-.398-.163-.697v-.02c0-.295.061-.447.163-.603.043-.063.117-.132.291-.132 0 0 .128.002.216.135.102.152.162.305.162.619 0 .306-.056.532-.118.639-.079.081-.163.133-.287.213a1.034 1.034 0 0 0-.162-.064l-.089-.088z"/></svg>