<?xml version="1.0" encoding="utf-8"?>
<!-- Generator: Adobe Illustrator 22.0.1, SVG Export Plug-In . SVG Version: 6.00 Build 0)  -->
<svg version="1.1" id="Слой_1" xmlns="http://www.w3.org/2000/svg" xmlns:xlink="http://www.w3.org/1999/xlink" x="0px" y="0px"
	 width="95.2px" height="43.3px" viewBox="0 0 95.2 43.3" style="enable-background:new 0 0 95.2 43.3;" xml:space="preserve">
<style type="text/css">
	.st0{fill:#006AB4;}
</style>
<g>
	<path class="st0" d="M0,43.3L11.1,0h11l9.6,43.3h-8.9l-2-11.3h-9.3L8.9,43.3H0z M12.5,25.6h7.3L16.4,5.5L12.5,25.6z"/>
	<path class="st0" d="M35,43.3V0h15.6c2.3,0,4.3,0.6,6,1.7c1.7,1.1,3.1,2.7,4,4.6s1.4,4,1.4,6.4c0,2.4-0.5,4.6-1.4,6.5
		c-0.9,2-2.3,3.5-4,4.7c-1.8,1.2-3.8,1.8-6.1,1.8h-7.2v17.6H35z M43.2,19.3h4.1c2.1,0,3.6-0.6,4.6-1.7c1-1.1,1.6-2.7,1.6-4.8
		c0-2.1-0.5-3.7-1.6-4.7c-1-1.1-2.6-1.6-4.6-1.6h-4.1V19.3z"/>
	<path class="st0" d="M67.6,43.3V0h8.9l12,31.5h0.1c-0.7-3.7-1-9-1-16.1V0h7.7v43.3h-8.9l-12-31.4h-0.1c0.7,3.1,1,8.5,1,16.1v15.4
		H67.6z"/>
</g>
</svg>
