<?xml version="1.0" encoding="utf-8"?>
<!-- Generator: Adobe Illustrator 22.0.1, SVG Export Plug-In . SVG Version: 6.00 Build 0)  -->
<svg version="1.1" id="Слой_1" xmlns="http://www.w3.org/2000/svg" xmlns:xlink="http://www.w3.org/1999/xlink" x="0px" y="0px"
	 width="145px" height="90px" viewBox="0 0 145 90" style="enable-background:new 0 0 145 90;" xml:space="preserve">
<style type="text/css">
	.st0{fill:#004077;}
	.st1{fill:#FFFFFF;}
</style>
<rect class="st0" width="145" height="90"/>
<g>
	<path class="st1" d="M28.4,63.1l10-39h9.9l8.6,39h-8L47.1,53h-8.4l-2.3,10.2H28.4z M39.7,47.2h6.5l-3-18.1L39.7,47.2z"/>
	<path class="st1" d="M59.9,63.1v-39h14c2.1,0,3.9,0.5,5.4,1.5c1.6,1,2.8,2.4,3.6,4.1s1.2,3.6,1.2,5.7c0,2.1-0.4,4.1-1.3,5.9
		c-0.8,1.8-2,3.2-3.6,4.3c-1.6,1.1-3.4,1.6-5.5,1.6h-6.5v15.9H59.9z M67.3,41.5h3.7c1.8,0,3.2-0.5,4.2-1.5c0.9-1,1.4-2.4,1.4-4.3
		c0-1.9-0.5-3.3-1.4-4.3c-0.9-1-2.3-1.5-4.2-1.5h-3.7V41.5z"/>
	<path class="st1" d="M89.3,63.1v-39h8l10.8,28.4h0.1c-0.6-3.3-0.9-8.1-0.9-14.5V24.1h6.9v39h-8L95.4,34.9h-0.1
		c0.6,2.8,0.9,7.7,0.9,14.5v13.8H89.3z"/>
</g>
</svg>
